<?xml version="1.0" encoding="UTF-8"?>
<svg id="a" data-name="レイヤー 1" xmlns="http://www.w3.org/2000/svg" width="439.49" height="229.12" viewBox="0 0 439.49 229.12">
  <defs>
    <style>
      .b {
        fill: #558f35;
      }

      .c {
        fill: #894f94;
      }

      .d {
        fill: #da5f7c;
      }

      .e {
        fill: #000000;
      }
    </style>
  </defs>
  <path class="d" d="m123.81,166.6c1.57-.03,2.92-.58,4.05-1.65,1.13-1.06,1.74-2.41,1.84-4.04.1-1.75-.48-3.28-1.76-4.58-1.28-1.3-2.79-1.91-4.56-1.82-1.95.07-4.32.25-7.1.53.17-2.88.37-5.73.6-8.54.17-1.81-.35-3.4-1.56-4.76-1.21-1.36-2.69-2.09-4.44-2.19-1.82-.11-3.39.46-4.72,1.7-1.33,1.24-2.02,2.77-2.06,4.59l-.17,10.92c-6.35,1.13-12.34,2.67-17.98,4.6-2.37.8-3.63,2.46-3.78,4.96-.09,1.57.39,2.91,1.46,4.04,1.06,1.13,2.35,1.74,3.85,1.83.62.04,1.26-.05,1.9-.27,4.28-1.32,9.03-2.45,14.24-3.4-.17,8.22-.37,14.8-.59,19.75-2.17-.5-4.6-.84-7.29-.99-5.26-.31-9.59.69-12.99,3.01-3.6,2.43-5.53,5.89-5.79,10.4-.26,4.45,1.13,8.03,4.17,10.75,3.04,2.72,7.35,4.25,12.92,4.57,9.2.54,15.32-2.52,18.35-9.19,1.9,1.81,3.5,3.49,4.79,5.04,1.29,1.55,2.81,2.38,4.56,2.48,1.75.1,3.29-.43,4.62-1.61,1.33-1.18,2.04-2.64,2.14-4.4.11-1.82-.43-3.38-1.61-4.71-4.01-4.44-8.11-7.95-12.29-10.52l1.06-26.13c2.78-.21,5.48-.34,8.12-.37Zm-29.67,38.49c-4.19-.25-6.21-1.74-6.05-4.5.15-2.57,2.42-3.72,6.8-3.46,2.32.14,4.81.88,7.5,2.23-.62,4.11-3.37,6.02-8.25,5.73Z"/>
  <path class="d" d="m146.53,145l5.6.43c-.55-1.95-2.21-4.13-4.64-5.79-3.93-2.69-9.91-.77-9.91-.77,0,0,.38,6.27,4.3,8.96,2.43,1.67,5.06,2.43,7.08,2.23l-2.42-5.06Z"/>
  <path class="d" d="m127.23,138.63l-6.07-3.9c-.57,2.54-.02,6.01,1.72,9.38,2.8,5.43,10.74,6.91,10.74,6.91,0,0,3.39-7.33.59-12.76-1.74-3.37-4.25-5.83-6.65-6.84l-.34,7.2Z"/>
  <path class="d" d="m54.09,175.96c-.03.32-.06.63-.1.95l.89-.51-.79-.44Z"/>
  <path class="d" d="m73.72,182.98c-.85-.99-1.94-1.53-3.25-1.6-2-.12-3.5.77-4.49,2.66l-.95,1.83c.03-.87.1-1.77.15-2.65-1.97.97-4.15,1.65-6.46,1.68-1.86.02-3.64-.15-5.28-.48-.25,5.5-.17,10.92.25,16.24.25-.15.49-.29.74-.39l.16,3.6,3.13-1.94c.29,1.27,0,3-.91,4.68-.5.93-1.32,1.63-2.17,2.14.31,1.27.94,2.37,1.92,3.28,1.16,1.07,2.56,1.66,4.18,1.75,1.69.1,3.21-.38,4.56-1.43,1.35-1.05,2.17-2.42,2.45-4.1,1.21-6.77,3.43-13.49,6.65-20.15.28-.55.44-1.14.48-1.76.07-1.25-.32-2.37-1.17-3.37Z"/>
  <path class="d" d="m66.7,170.08c1.23-7.4,3.09-15.3,5.63-23.74.15-.49.25-1.02.28-1.59.1-1.75-.42-3.31-1.56-4.66-1.15-1.35-2.66-2.09-4.54-2.2-1.56-.09-2.99.34-4.27,1.3-1.28.96-2.09,2.22-2.44,3.77-2.09,9.47-3.66,17.85-4.73,25.19,1.22-.19,2.5-.31,3.82-.32,2.87-.03,5.53.95,7.8,2.25Z"/>
  <path class="d" d="m53.99,176.91l-7.69,4.41c1.73,1.41,4.22,2.49,7.14,3.08.04-.9.09-1.8.14-2.7.1-1.52.24-3.12.4-4.79Z"/>
  <path class="d" d="m46.4,171.68l7.68,4.28c.26-2.45.59-5.06,1-7.81-3.57.57-6.63,1.84-8.68,3.53Z"/>
  <path class="d" d="m73.92,176.19s-2.88-3.63-7.22-6.1c-.76,4.57-1.27,8.95-1.53,13.12,5.15-2.53,8.75-7.02,8.75-7.02Z"/>
  <path class="d" d="m30.26,155.05s-3.08-11.48-11.58-15.03c-5.27-2.2-10.58-2.66-14.36-1.56l6.53,8.49L0,148.19c1.77,3.42,5.77,6.84,11.04,9.04,8.51,3.55,19.22-2.18,19.22-2.18Z"/>
  <path class="d" d="m24.88,173.23s6.5,3.23,11.51.97c3.11-1.4,5.43-3.51,6.42-5.58l-6.5-.55,3.74-5.18c-2.27-.59-5.43-.23-8.54,1.18-5.01,2.26-6.64,9.17-6.64,9.17Z"/>
  <path class="d" d="m53.7,200.65c-1,.62-1.98,1.67-2.7,3.02-1.45,2.71.28,6.38.28,6.38,0,0,1.76-.32,3.38-1.29-.06-.23-.12-.46-.16-.71-.34-2.45-.6-4.91-.8-7.4Z"/>
  <path class="d" d="m17.67,175.22c1.46-3.01,1.85-6.07,1.25-8.28l-5.35,3.61-.55-6.3c-2.14.96-4.32,3.2-5.78,6.21-2.35,4.85.96,11.17.96,11.17,0,0,7.13-1.55,9.48-6.41Z"/>
  <path class="d" d="m22.59,187.45c-3.13-1.36-6.29-1.69-8.55-1.07l3.81,5.13-6.49.64c1.03,2.06,3.37,4.14,6.5,5.5,5.04,2.2,11.49-1.12,11.49-1.12,0,0-1.72-6.88-6.76-9.08Z"/>
  <path class="d" d="m31.29,177.94l.34,3.89-3.64-1.66c-.13,1.4.43,3.23,1.64,4.91,1.95,2.72,6.45,2.94,6.45,2.94,0,0,1.34-4.17-.61-6.89-1.21-1.68-2.78-2.83-4.18-3.2Z"/>
  <path class="d" d="m46.79,190.51c-1.27-.4-3.08-.29-4.89.41-2.92,1.14-4.07,5.02-4.07,5.02,0,0,3.59,2.03,6.51.9,1.81-.71,3.2-1.84,3.83-2.98l-3.68-.51,2.29-2.83Z"/>
  <path class="c" d="m43.01,121.8c-12.13-.86-27.79-8.91-40.02-16.43.82,4.52,1.93,8.02,3.34,10.47,4.67,8.22,13.13,12.18,25.39,11.9,12.62-.29,26.55-3.71,41.8-10.24.42-.18.8-.38,1.17-.59-11.52,3.36-22.44,5.55-31.67,4.9Z"/>
  <path class="c" d="m19.74,23.13c.02-2.77-.97-5.15-2.99-7.11-2.02-1.97-4.41-2.92-7.18-2.85s-4.97,1.08-6.84,3.05C.85,18.18-.06,20.5,0,23.19l.94,44.12c5.63,3.59,12.22,7.48,18.92,10.74-.41-22.73-.45-41.04-.11-54.91Z"/>
  <path class="e" d="m369.22,84.04c-1.83,3.05-3.91,5.84-6.22,8.02,3.7,4.83,6.96,9.59,9.09,14.86.16.16.33.31.49.47-1.65-2.82-2.97-6.03-3.83-9.53-1-4.07-.61-8.93.47-13.81Z"/>
  <path class="e" d="m186.37,150.72c.16,1.3-.12,2.52-.85,3.66-.73,1.14-1.73,1.91-3,2.31-5.26,1.61-9.9,3.17-13.91,4.69-3.84,12.66-8.32,24.73-13.44,36.22-.89,2.03-2.49,3.19-4.79,3.47-1.59.2-3.06-.21-4.38-1.21-1.33-1.01-2.09-2.34-2.29-3.99-.15-1.18.07-2.35.65-3.5,4.46-8.59,8.12-17.05,10.99-25.39-3.58,1.64-6.46,3.05-8.66,4.22-.62.32-1.29.52-2,.61-1.48.18-2.82-.16-4.04-1.03-1.22-.87-1.92-2.1-2.12-3.7-.34-2.72.69-4.64,3.07-5.78,6.8-3.24,12.74-5.89,17.83-7.96,1.05-4.15,1.9-8.21,2.54-12.19.48-2.88,2.17-4.5,5.07-4.86,1.65-.2,3.1.19,4.33,1.18,1.23.99,1.94,2.25,2.13,3.79.09.71.06,1.43-.09,2.17l-1.26,5.11c4.71-1.66,7.4-2.53,8.05-2.61,1.48-.18,2.83.19,4.05,1.12,1.22.93,1.93,2.16,2.12,3.7Z"/>
  <path class="e" d="m216.63,199.72c-.25-2.01-1.21-3.51-2.9-4.5-5.12-3.09-10.42-5.4-15.89-6.95-1.25-5.25-1.98-8.73-2.19-10.44-.08-.65-.11-1.64-.09-2.96.02-1.32-.02-2.31-.1-2.96-.18-1.48-.89-2.71-2.12-3.7-1.23-.99-2.62-1.39-4.15-1.2-3.01.37-4.7,2.05-5.05,5.03-.39,3.17.08,7.91,1.4,14.23-1.99-.05-3.93.04-5.82.27-5.26.65-9.42,2.39-12.49,5.23-3.39,3.12-4.8,7.01-4.23,11.68.55,4.49,2.82,7.81,6.81,9.96,3.72,1.94,8.24,2.58,13.56,1.93,9.69-1.2,14.97-5.87,15.82-14.01,3.37,1.56,6.07,3,8.09,4.31,1.17.76,2.5,1.04,3.98.86,1.71-.21,3.09-.98,4.12-2.31,1.04-1.33,1.45-2.82,1.25-4.47Zm-30,2.71c-.91,1.37-2.61,2.21-5.09,2.52-4.55.56-6.99-.49-7.32-3.15-.37-3.01,1.86-4.82,6.71-5.42,1.77-.22,3.99-.01,6.65.62.18,2.44-.14,4.25-.95,5.43Z"/>
  <path class="e" d="m212.77,162.67c.2,1.6-.2,3.03-1.18,4.29-.98,1.26-2.27,1.99-3.87,2.19-1.72.21-3.2-.17-4.46-1.16-2.92-2.28-5.61-4.14-8.07-5.57-1.62-.94-2.54-2.36-2.77-4.25-.2-1.6.18-3.01,1.14-4.24.96-1.23,2.24-1.94,3.83-2.14,1.12-.14,2.23.06,3.31.58,3.45,1.73,6.78,3.84,9.96,6.33,1.2.93,1.9,2.26,2.11,3.97Z"/>
  <path class="e" d="m78.71,111.61c.18-.8.27-1.65.25-2.57-.01-.55-.08-1.07-.18-1.58-13.09,4.07-25.59,6.92-35.96,6.19-12.45-.88-28.59-9.32-40.94-17.01.11,1.26.23,2.46.36,3.62,12.23,7.76,28.83,16.79,41.04,17.65,10,.7,22.4-2.21,35.43-6.31Z"/>
  <path class="e" d="m19.94,82.41c-6.63-3.09-13.18-6.82-18.9-10.39l.07,3.43c5.62,3.59,12.21,7.48,18.9,10.73-.03-1.27-.05-2.53-.08-3.77Z"/>
  <path class="e" d="m20.7,98.89c-6.77-3.12-13.47-6.94-19.3-10.58.04,1.19.09,2.35.15,3.48,6.04,3.85,13.19,8.05,20.39,11.43-.53-1.22-.94-2.67-1.23-4.32Z"/>
  <path class="e" d="m20.17,93.22c-.02-.9-.04-1.78-.06-2.67-6.63-3.09-13.18-6.83-18.9-10.4l.07,3.43c5.63,3.6,12.23,7.5,18.94,10.75-.02-.37-.04-.73-.05-1.12Z"/>
  <path class="e" d="m73.32,100.88c-5.87,1.68-11.58,3.04-16.98,3.86-7.08,2.3-13.41,3.67-19,4.1,1.99.46,3.93.79,5.75.92,9.65.68,21.53-2,34.06-5.88-.29-.38-.6-.74-.96-1.1-.87-.85-1.83-1.49-2.87-1.91Z"/>
  <path class="e" d="m120.86,80.79c12.05-3.8,23.64-6.63,33.59-6.65,3.34-1.61,6.39-2.66,9.15-3.16-2.12-.51-4.18-.86-6.11-1-9.84-.69-21.99,2.11-34.78,6.1l.39,2.74c-.71.61-1.46,1.27-2.24,1.97Z"/>
  <path class="e" d="m146.24,62.29c-2.78,1.62-5.69,3.47-8.74,5.57-.2-1.39-.38-2.67-.55-3.89-4.95,1.12-10.1,2.59-15.37,4.25l.57,3.95c12.96-4.01,25.33-6.81,35.61-6.08,11.34.8,25.76,7.89,37.58,14.96-.05-1.2-.16-2.41-.32-3.63-11.79-7.22-26.59-14.8-37.73-15.59-3.42-.24-7.14-.04-11.05.47Z"/>
  <path class="e" d="m193.95,72.19c-1.55-5.47-4.32-9.82-8.36-13.02-5.41-4.2-12.03-5.75-19.86-4.62-3.25.47-6.86,1.57-10.83,3.3.9.01,1.79.04,2.67.1,10.96.77,24.8,7.42,36.38,14.25Z"/>
  <path class="e" d="m166.1,101.12c-1.18.17-2.72-.23-4.62-1.21-1.9-.97-3.69-1.34-5.37-1.1-2.27.33-4.1,1.38-5.47,3.17-1.38,1.79-1.9,3.81-1.57,6.09.31,2.19,1.58,4.11,3.79,5.77,4.04,3.03,9.17,4.1,15.4,3.2,8.01-1.15,14.5-5.05,19.5-11.69-5-2.75-10.23-5.31-15.3-7.27-1.87,1.69-3.99,2.71-6.35,3.05Z"/>
  <path class="e" d="m176.31,75.46c.69,1.25,1.2,2.74,1.53,4.47,5.85,2.57,11.71,5.72,17.06,8.9.17-1.06.3-2.13.38-3.22-5.85-3.59-12.44-7.26-18.97-10.15Z"/>
  <path class="e" d="m135.45,52.7c4.59-2.12,9.01-4.85,13.25-8.21,2.46-1.98,3.48-4.45,3.06-7.39-.31-2.19-1.36-3.95-3.14-5.28-1.78-1.33-3.76-1.84-5.95-1.53-1.18.17-2.35.68-3.52,1.53-1.86,1.38-3.75,2.6-5.66,3.65-.45-4.32-.83-8.47-1.14-12.46-.18-2.46-1.25-4.5-3.2-6.11-1.95-1.61-4.14-2.24-6.58-1.89-2.44.35-4.38,1.51-5.81,3.47-1.44,1.97-1.94,4.12-1.52,6.47.65,3.94,1.47,9.32,2.44,16.14l-1.89.27c-3.96.57-7.89.4-11.79-.5-.89-.21-1.92-.24-3.1-.07-2.27.33-4.11,1.43-5.52,3.3-1.41,1.88-1.95,3.95-1.62,6.22.57,3.96,2.8,6.34,6.69,7.16,5.75,1.15,11.44,1.32,17.08.51l2.52-.36.96,6.7c5.25-1.65,10.42-3.1,15.39-4.21-.44-3.22-.76-5.7-.96-7.4Z"/>
  <path class="e" d="m107.8,93.37c10.98-3.83,21.93-7.4,32.01-9.41-.03-.19-.05-.38-.08-.57,2.38-1.79,4.67-3.38,6.86-4.79-9.87,1.28-21.05,4.62-32.46,8.5-1.97,1.91-4.08,4-6.32,6.27Z"/>
  <path class="e" d="m175.4,94.57c-.08.13-.18.24-.26.37,4.98,2,10.02,4.5,14.82,7.15.54-.89,1.03-1.78,1.49-2.69-4.67-2.72-9.65-5.36-14.61-7.57-.4.95-.87,1.87-1.44,2.74Z"/>
  <path class="e" d="m127.55,109.87c-6.02-2.49-9.58-3.95-10.68-4.39,1.04-1.31,2.17-2.64,3.36-3.98-6.25,2.02-12.61,4.28-18.92,6.51-1.77.63-3.55,1.26-5.32,1.88,0,.04,0,.08.01.13.33,2.27,1.4,4.09,3.23,5.46,1.83,1.37,3.88,1.89,6.15,1.57,1.43-.21,2.68-.73,3.77-1.57,8.08,4.25,13.84,7.55,17.26,9.89,2.48,1.71,5.19,2.35,8.13,1.93,3.2-.46,5.77-1.99,7.72-4.59,1.95-2.6,2.65-5.49,2.11-8.67-.92-5.67-1.87-11.76-2.84-18.25-4.93.95-10.12,2.3-15.45,3.9l1.46,10.19Z"/>
  <path class="e" d="m177.95,88.06c5.14,2.25,10.28,4.95,15.09,7.73.36-.96.68-1.93.96-2.91-4.94-2.97-10.34-5.96-15.74-8.47,0,1.26-.1,2.48-.31,3.65Z"/>
  <path class="e" d="m101.68,99.66c-1.12,1.17-2.25,2.36-3.43,3.59-.68.72-1.2,1.48-1.58,2.27,1.12-.39,2.23-.79,3.34-1.18,13.93-4.94,28.18-9.98,40.95-12.41-.2-1.35-.4-2.72-.6-4.1-12.01,2.42-25.47,7.15-38.68,11.83Z"/>
  <path class="e" d="m169.81,39.02c5.35,1.38,10.19,3.69,14.52,6.94,1.83,1.37,3.96,1.88,6.4,1.53,2.44-.35,4.32-1.48,5.63-3.38,1.31-1.91,1.82-3.95,1.5-6.14-.3-2.1-1.28-3.85-2.94-5.25-6.23-5.12-13.57-8.36-22.01-9.73-.79-.14-1.61-.16-2.45-.03-2.19.31-3.95,1.36-5.28,3.14-1.34,1.78-1.84,3.81-1.51,6.08.52,3.62,2.56,5.9,6.14,6.85Z"/>
  <path class="e" d="m368.05,147.87c7.49,2.46,17.18,5.06,23.89-.64,0-3.55-.78-6.47-2.35-8.75l-27.95-11.73c-6.81,3.55-48.39,18.08-52.48,12.37l-.64,3.41c-20.91,1.6-44.41,19.76-64,7.68h-2.99l2.99,8.75s11.52,8.75,11.52,8.75c1.98,5.55,7.33,6.95,13.44,7.68l4.05-2.99s-8.75,18.13-8.75,18.13c-5.59,4.64-9.43,5.91-15.57,1.28l-3.63,2.77,1.28,8.32c4.69,6.54,10.1,12.37,16.21,17.49l7.68-1.71c1.46-1.45,6.89-8.63,9.17-8.75,4.13-6.44,9.14-13.59,8.32-21.12l2.35-13.44-1.28-3.63-5.76-4.69c7.45-2.45,20.83-9.53,28.59-8.11,0,0,1.71,11.73,1.71,11.73-1.35,10.47,1.48,21.53-5.33,30.51-5.21-1.76-11.51-3.89-17.49-3.63v3.63l2.99,7.47c2.27,2.7,4.98,4.48,8.11,5.33l11.73,10.45c2.27,3.13,5.33,4.69,9.17,4.69l3.63-1.07s7.04-6.4,7.04-6.4c8.96-13.97,1.42-31.31,2.77-46.93-1.81-7.62-.4-16.15,1.71-23.47,3.13.43,5.69-.35,7.68-2.35,7.39-.14,14.79-.5,22.19-1.07Z"/>
  <path class="e" d="m407.46,98.29c-.36,7.45-3.15,13.96-7.67,17.76l-8.73-9.07-3.32,11.72c15.32,8.88,34.66,13.96,49.64,8.7,2.44-3.45,1.9-7.73-1.28-10.67-9.83-5.7-19.45-11.78-28.64-18.44Z"/>
  <path class="e" d="m343.52,157.26l8.11,14.51c11.83,13.08,20.94,28.33,34.34,39.89l2.99-.64,4.05,1.71s2.35-.43,2.35-.43c7.78,1.8,16.64,1.51,20.91-5.33-4.24-28.27-49.76-38.5-72.74-49.7Z"/>
  <path class="e" d="m364,110.33c-10.95-4.64-21.65-6.91-32.64-11.09l-7.04,1.07c-10.12,10.44-29.98,19.53-42.02,7.68,4.55-11.61,11.14-23.48,19.2-32.85,4.24-7.03,9.24-21.49,15.79-25.6,2.4-3.63,4.07-8.39,7.04-11.73,7.4,6.3,11.27,14.68,16.74,22.62,3.3-1.71,7.36-2.66,11.59-3.11-4.79-1.1-9.27-2.83-12.44-5.49-8.97-7.53-13.06-18.23-10.91-26.52l12.39,2.07-.91-2.52c-1.48-1.58-2.92-2.97-4.3-4.11-6.41-5.32-14.93-7.32-22.61-10.45-5.41,1.85-10.45,4.34-15.15,7.47-11.79-1.44-24.49-15.5-36.27-8.75l4.27,6.4c-4.34,19.69-21.54,39.84-38.61,49.92-3.84,0-7.54-1.42-11.09-4.27l-1.71,5.33v4.05c4.27,5.97,8.96,11.24,14.08,15.79-5.03,8.89-8.45,18.06-14.51,26.45-1.99-.43-3.41.14-4.27,1.71,0,0,.64,2.99.64,2.99-2.42,12.66,5.16,25.27,15.79,31.57,9.26-.18,18.3-2.17,23.89-9.39l2.35-.43c8.8-9.09,19.33-16.79,26.67-27.09l1.28,4.69c3.16,1.9,8.7,7.83,11.09,10.67,3.13.71,6.04,2.06,8.75,4.05,18.91-7.43,40.21-9.99,60.58-12.37l4.05-3.41-1.71-5.33Zm-80.42-73.17l4.69-.64,1.07-2.99c3.84-2.27,8.67-3.84,14.51-4.69-2.99,7.82-7.04,15.08-12.16,21.76l-12.8-2.99,4.69-10.45Zm-48.42,81.92c-4.65-7.68-5.67-18.51-.64-26.24,6.41-2.24,11.09-7.85,17.49-11.73l10.03,12.16c-7.85,9.32-17.52,18.11-26.88,25.81Zm37.97-41.6c-4.69-1.14-8.96-2.84-12.8-5.12l5.76-7.04,2.99-7.04,12.16,5.76c-1.57,5.12-4.27,9.6-8.11,13.44Z"/>
  <path class="b" d="m342.88,62.97c-.63-.84-1.23-1.7-1.82-2.55-.52.27-1.03.56-1.51.87-9.95,6.41-15.5,16.53-14.51,25.01l12.58-.59-5.92,11.33c7.09,4.54,18.44,3.78,28.39-2.63,1.02-.66,1.99-1.45,2.93-2.34-1-1.3-2.02-2.6-3.07-3.92-4.73-5.95-12.5-19.09-17.07-25.17Z"/>
  <path class="b" d="m387.58,119.27l.16-.58c-5.77-3.35-10.97-7.23-15.15-11.31,3.76,6.42,9.24,10.8,14.99,11.89Z"/>
  <path class="b" d="m407.46,98.29c.16-3.33-.16-6.84-1.03-10.39-1-4.07-3.59-8.14-6.79-11.9,4.24,2.49,8.68,4.31,12.81,4.56,11.7.69,22.01-4.27,26.15-11.77l-10.43-7.01,11.32-5.72c-3.05-7.93-12.59-14.07-24.29-14.76-4.14-.25-8.79,1.04-13.34,3.01,3.7-3.35,6.83-7.08,8.39-11,4.4-11.07,3.06-22.48-2.66-28.7l-9.93,7.97L395.92-.03c-8.42.58-17.25,7.96-21.65,19.02-1.56,3.92-1.85,8.78-1.46,13.75-1.95-4.56-4.45-8.69-7.63-11.35-8.97-7.53-20.13-9.63-27.79-5.96l3.39,9.41c10.66,11.35,23.49,32.44,31.96,42.18,10.34,11.9,22.12,22.13,34.72,31.27Z"/>
</svg>