<?xml version="1.0" encoding="UTF-8"?>
<svg id="_レイヤー_1" data-name="レイヤー 1" xmlns="http://www.w3.org/2000/svg" viewBox="0 0 410.34 87.09">
  <defs>
    <style>
      .cls-1 {
        fill: #2a95b0;
      }

      .cls-1, .cls-2 {
        stroke-width: 0px;
      }

      .cls-2 {
        fill: #3e3a39;
      }
    </style>
  </defs>
  <path class="cls-2" d="M6.73,40.64c-.89,2.88-1.81,5.29-2.79,7.19l-3.94-1.73c2.1-4.29,3.53-8.87,4.26-13.78l4.22.76c-.3,2.2-.89,4.73-1.75,7.55ZM12.59,52.89l-1.47-27.98,4.23-.22,1.47,27.98-4.23.22ZM24.45,46.15l-5.29-13.84,3.89-1.52,5.29,13.87-3.89,1.49Z"/>
  <path class="cls-2" d="M53.45,53.02l-15.07-.79.53-10.04c-1.14,1.08-2.28,2.08-3.42,2.94l-2.35-3.13c1.13-.86,2.3-1.86,3.45-3l-2.53-.13.17-3.34,5.25.28c.3-.35.57-.72.84-1.07l-3.56-.19.16-3.06,5.39.28.49-.87-6.9-.36.17-3.34,8.09.42c.17-.52.28-1.02.36-1.49l3.84.62c-.05.36-.12.72-.22,1.07l10.04.53-.17,3.34-11.01-.58c-.13.3-.25.57-.41.87l10.15.53-.16,3.06-11.68-.61-.73,1.08,6.9.36,1.11-1.03,1.03,1.14,6.01.31-.17,3.34-2.59-.14,3.11,3.37-2.87,2.64-2.74-2.99-.52,9.95ZM41.68,39.27c-.18.24-.45.59-.81,1.02l10.93.57-.89-1.11-9.23-.48ZM42.71,43.59l-.06,1.22,6.42.34-.15,2.92-6.42-.34-.07,1.36,7.34.38.29-5.5-7.34-.38Z"/>
  <path class="cls-2" d="M68.66,52.09l-3.06-2.49c2.74-3.51,4.62-7.57,5.63-12.22l3.81.91c-1.15,5.22-3.28,9.81-6.39,13.8ZM65.79,35.1l-.21-3.98,10.09-.53-.23-4.44,3.89-.2.23,4.44,10.26-.54.21,3.98-24.24,1.27Z"/>
  <path class="cls-1" d="M102.96,40.19l1.5.08-.64,12.18-3.89-.2.44-8.48-.69.94-3.17-2.26,6.5-9.05,3.17,2.28-3.22,4.51ZM117.96,32.62l-.08,1.53-3.89-.2.08-1.53-7.51-.39-.08,1.53-3.89-.2.08-1.53-5.14-.27.2-3.89,5.14.27.09-1.81,3.89.2-.09,1.81,7.51.39.09-1.81,3.89.2-.09,1.81,4.87.25-.2,3.89-4.87-.25ZM108.62,52.39l.94-18.02,3.89.2-.74,14.12,9.26.49-.2,3.89-13.15-.69ZM115.33,43.96l-2.14-3.26,6.93-4.57,2.14,3.26-6.93,4.57Z"/>
  <path class="cls-2" d="M131.19,48.76l-.82-15.61,3.58-.19.82,15.61-3.58.19ZM148.34,44.85c-.7-.13-1.4-.21-2.14-.29l.09,1.76c.08,1.55-.35,2.89-1.32,4.01-.97,1.13-2.23,1.72-3.78,1.8-1.38.07-2.58-.37-3.58-1.34-1.03-1-1.57-2.16-1.64-3.57-.1-1.93.49-3.47,1.74-4.63,1.21-1.14,2.78-1.72,4.71-1.75l-.18-3.36-4.98.26-.19-3.58,4.98-.26-.14-2.67,3.58-.19.14,2.67,1.6-.08.19,3.58-1.6.08.19,3.65c1.03.11,2.02.23,2.94.37l-.6,3.54ZM142.61,44.41l-.33.02c-1.91.1-2.82.96-2.73,2.6.02.4.18.75.46,1.07.28.32.62.47,1,.45.52-.03.94-.24,1.28-.64.31-.4.46-.86.43-1.41l-.11-2.1Z"/>
  <path class="cls-1" d="M0,83.54l.23-4.47,13.01.68.26-5-13.01-.68.23-4.46,13.01.68.2-3.72-13.01-.68.23-4.46,17.47.92-1.16,22.12-17.47-.92Z"/>
  <path class="cls-2" d="M27.25,75.5l-.22-4.17,18.05-.95.22,4.17-18.05.95Z"/>
  <path class="cls-2" d="M60.7,87.09l-2.79-3.79c5-3.73,9.36-8.94,13.04-15.62l-5.52-3.24-7.05,8.02-3.55-3.08,9.63-11,12.71,7.52c-4.67,9.43-10.17,16.5-16.48,21.19ZM77.31,63.42l-2.11-2.28-2.31,2.14-2.11-2.28,2.28-2.14,2.14,2.28,2.31-2.11,2.11,2.28-2.31,2.11Z"/>
  <path class="cls-2" d="M90.11,82.61l-4.47-.36,1.45-19.03,4.47.36-1.45,19.03ZM103.98,80.78c-2.39,1.65-4.54,2.81-6.42,3.47l-2.84.98-1.27-24.26,4.46-.23.94,17.98c2.87-1.61,5.37-3.53,7.49-5.77l3.24,3.11c-1.56,1.63-3.44,3.2-5.6,4.71Z"/>
  <path class="cls-2" d="M134.09,77.43l-10.88-5.91-.75,14.32-4.47-.23,1.38-26.26,4.47.23-.55,10.48,1.52-2.76,11.41,6.21-2.12,3.92Z"/>
  <path class="cls-2" d="M152.2,86.21l-2.83-1.86c1.73-2.67,2.55-5.15,2.43-7.44-.13-2.45-1.3-3.77-3.55-3.95l.47,8.87-3.38.18-.45-8.6c-.53.16-1.09.37-1.64.6l-1.31-3.11c.95-.41,1.88-.73,2.77-.96l-.18-3.47,3.38-.18.17,3.27c2.1.07,3.79.75,5.05,2.04,1.24,1.31,1.92,3.02,2.03,5.13.16,3.06-.82,6.23-2.96,9.48ZM159.86,74.75l-4.99-3.01,1.75-2.89,4.99,3.01-1.75,2.89ZM160.12,68.1l-1.68-1.47-1.49,1.7-1.68-1.47,1.49-1.7,1.68,1.47,1.49-1.68,1.68,1.47-1.49,1.68Z"/>
  <path class="cls-1" d="M212.53,54.5l-4.26-1.87v14.4l2.91,3.85-6.6,4.16,10.35,5.3-3.12,5.98-20.32-10.5,6.97-4.37h-18.51v6.71l10.92-1.72,1.04,6.65-18.71,2.96v-33.11l-3.48,1.56-2.91-6.65,24.33-10.81,24.33,10.81-2.91,6.65ZM191.12,44.52l-13.67,6.19h9.93v-3.22h7.28v3.22h10.14c-3.95-1.71-8.52-3.74-13.67-6.19ZM201.51,56.11h-21.57v2.03h19.55v4.73l-19.55-.05v2.13h21.57v-8.84Z"/>
  <path class="cls-2" d="M263.98,79.93c-16.01-13.27-24.21-19.88-24.55-19.88-.85,0-3.19,2.05-7.12,6.21-2.11,2.22-4.16,4.5-6.21,6.78l-6.1-5.98c2.57-2.74,6.44-6.78,11.62-12.08,2.39-2.34,5.01-3.47,7.86-3.47,2.22,0,4.22.74,5.98,2.16l23.99,19.66-5.47,6.61ZM260.51,54.64l-4.1-3.93-3.99,4.04-4.04-3.87,3.99-4.1,4.04,3.93,3.99-4.1,4.05,3.93-3.93,4.1Z"/>
  <path class="cls-2" d="M292.93,55.04l-9.29,27.98-7.25-2.4,8.48-25.58h-5.57v-7.66h8.12l2.09-6.33,7.25,2.45-1.28,3.88h6.08v7.66h-8.63ZM310.75,85.48c-8.63,0-14.91-2.5-18.89-7.46l5.98-4.8c2.45,3.06,6.59,4.6,12.46,4.6.87,0,1.79-.05,2.76-.1l.51,7.66c-.97.05-1.89.1-2.81.1ZM298.49,64.29v-7.66h14.14v7.66h-14.14Z"/>
  <path class="cls-2" d="M329.68,81.2c-2.82-4.28-4.75-8.14-5.74-11.58-1.04-3.39-1.55-7.67-1.55-12.8,0-4.24.47-8.05,1.46-11.48l6.78,1.93c-.8,2.87-1.18,6.02-1.18,9.55,0,4.66.66,8.94,1.93,12.85l5.32-5.22,4.94,5.04-11.95,11.72ZM355.57,67.17l-5.86-14.79,6.56-2.61,5.86,14.79-6.56,2.61Z"/>
  <path class="cls-1" d="M173.02,32.41l-1.56,1.31s-1.6-2.12-1.84-2.56l-1.13.13.05,2.23h-1.74s-.03-6.93,0-7.85c2.67-.7,4.72-.21,5.23,1.76.21,1.1-.16,2.23-1.34,2.69,0,0,1.67,1.88,2.32,2.28ZM170.33,27.94c-.06-.65-.6-1-1.87-.88l.03,2.32c1-.03,1.95-.42,1.84-1.44Z"/>
  <path class="cls-2" d="M174.83,34.42s.03-6.3-.03-7.93l2.04.05s.04,5.5.09,7.8c-.99.03-1.26.03-2.1.08Z"/>
  <path class="cls-2" d="M186.69,32.59l-1.58,1.22s-2.41-2.79-2.66-3.18l-.64.36s.09,1.77.14,2.54l-2.15-.03s.04-6.41.03-7.92l2.06-.05v2.84s2.19-1.74,3.32-2.7l1.1,1.87s-1.54.83-2.91,1.66c0,0,2.01,2.17,3.28,3.38Z"/>
  <path class="cls-2" d="M195.89,33.46l-1.58,1.22s-2.41-2.79-2.66-3.18l-.64.36s.09,1.77.14,2.54l-2.15-.03s.04-6.41.03-7.92l2.06-.05v2.84s2.19-1.74,3.32-2.7l1.1,1.87s-1.54.83-2.91,1.66c0,0,2.01,2.17,3.28,3.38Z"/>
  <path class="cls-2" d="M201.42,25.18c1.48,2.43,3.71,6.63,4.52,8.35,0,0-1.83.17-2.44.17,0,0-.4-1.22-.73-2.01,0,0-1.1.01-2.66.04l-.78,1.87s-1.16-.19-1.99-.35c2.57-5.54,2.67-5.53,4.08-8.06ZM202.21,29.79c-.36-.82-.9-1.86-.9-1.86l-.8,1.91c.84.03,1.7-.05,1.7-.05Z"/>
  <path class="cls-2" d="M221.36,26.55l2.06.9s-2.76,6.13-3.43,7c0,0-1.64-1.67-2.79-2.84,0,0-1.64,1.99-2.58,2.83,0,0-2.71-5.3-3.47-6.91l1.8-.87s1.27,3.17,2.09,4.82c1.1-1.47,1.63-2.43,2.22-3.25,0,0,1.52,2.4,2.12,3.08,0,0,1.44-3.43,1.97-4.75Z"/>
  <path class="cls-2" d="M226.98,25.18c1.48,2.43,3.71,6.63,4.52,8.35,0,0-1.83.17-2.44.17,0,0-.4-1.22-.73-2.01,0,0-1.1.01-2.66.04l-.78,1.87s-1.16-.19-1.99-.35c2.57-5.54,2.67-5.53,4.08-8.06ZM227.77,29.79c-.36-.82-.9-1.86-.9-1.86l-.8,1.91c.84.03,1.7-.05,1.7-.05Z"/>
  <path class="cls-2" d="M238.28,26.42s1.44.05,2.02.05c0,0,.08,7.15.01,7.9,0,0-1.03.08-2.12.08,0,0-2.87-4.22-3.28-4.91l.07,4.83s-1.18.06-1.97.03c0,0,.04-5.18,0-7.71l1.75-.13s3.3,5.14,3.54,5.78l-.03-5.92Z"/>
  <path class="cls-2" d="M246.29,27.48l.16,5.98s-1.08.12-2.01.12c0,0,.18-5.49.16-6.1,0,0-1.8-.16-2.4-.18v-1.65s4.89,0,6.52.05l-.16,1.75s-1.83.05-2.26.03Z"/>
  <path class="cls-2" d="M252.29,34.6c-1.48,0-2.54-.96-2.83-1.83l1.23-1.17c.16.65.64,1.32,1.49,1.4.51.04,1.03-.09,1.08-.74.12-1.48-2.7-1.22-3.23-3.15-.38-1.4.49-2.66,2.18-2.8,1.57-.13,2.88.96,2.91,2.35l-1.62.25c.05-.52-.32-1.16-.95-1.17-.53-.01-.92.22-.94.67-.03.43.22.6.62.88,2.25,1.19,2.96,1.73,2.91,3.09-.04.92-.77,2.23-2.86,2.22Z"/>
  <path class="cls-2" d="M264.48,27.48l.16,5.98s-1.08.12-2.01.12c0,0,.18-5.49.16-6.1,0,0-1.8-.16-2.4-.18v-1.65s4.89,0,6.52.05l-.16,1.75s-1.83.05-2.26.03Z"/>
  <path class="cls-2" d="M274.97,30.33c.12,2.25-.95,3.96-2.78,4.35-1.87.4-4.13-.83-4.26-3.71-.17-3.79,2.05-4.57,3.49-4.57,1.45.04,3.36.57,3.54,3.93ZM273.11,30.45c-.04-1.29-.4-2.41-1.82-2.41-1.27.14-1.63,1.23-1.6,2.67.04,1.19.52,2.26,1.64,2.4.83.09,1.86-.52,1.78-2.66Z"/>
  <path class="cls-1" d="M280.23,25.66s3.09-.12,5.76.03l-.16,1.54s-1.96.18-3.3.23l.05,1.21s2.05-.09,2.83-.09l-.03,1.7s-2.06-.08-2.78-.12l.09,1.48s2.23.08,3.32-.21l-.16,2.08s-4.43.1-5.55-.1c-.16-4.04-.14-4.04-.09-7.75Z"/>
  <path class="cls-2" d="M291.08,26.05c1.48,2.43,3.71,6.63,4.52,8.35,0,0-1.83.17-2.44.17,0,0-.4-1.22-.73-2.01,0,0-1.1.01-2.66.04l-.78,1.87s-1.16-.19-1.99-.35c2.57-5.54,2.67-5.53,4.08-8.06ZM291.87,30.65c-.36-.82-.9-1.86-.9-1.86l-.8,1.91c.84.03,1.7-.05,1.7-.05Z"/>
  <path class="cls-2" d="M299.36,27.48l.16,5.98s-1.08.12-2.01.12c0,0,.18-5.49.16-6.1,0,0-1.8-.16-2.4-.18v-1.65s4.89,0,6.52.05l-.16,1.75s-1.83.05-2.26.03Z"/>
  <path class="cls-1" d="M310.11,31.5s-2.44-3.25-3.12-4.41l1.53-.74,2.26,4.02c1.48-2.25,1.76-2.62,2.63-4l1.93,1.09s-3.1,3.67-3.35,4.1l.09,2.86h-2.1l.12-2.92Z"/>
  <path class="cls-2" d="M323.49,29.46c.12,2.25-.95,3.96-2.78,4.35-1.87.4-4.13-.83-4.26-3.71-.17-3.79,2.05-4.57,3.49-4.57,1.45.04,3.36.57,3.54,3.93ZM321.64,29.58c-.04-1.29-.4-2.41-1.82-2.41-1.27.14-1.63,1.23-1.6,2.67.04,1.19.52,2.26,1.64,2.4.83.09,1.86-.52,1.78-2.66Z"/>
  <path class="cls-2" d="M325.39,30.69c-.07-2.69,1.66-4.35,3.8-4.39,1.93-.03,3.4,1.05,3.61,2.78l-1.96.18c-.12-.7-.6-1.4-1.69-1.32-.95.08-1.6.79-1.76,1.92-.18,1.19.13,2.95,1.66,3.24,1.4.29,2.23-.62,2.21-1.6l-1.56.09v-1.64l3.28.12c.26,2.53-1.13,4.32-3.1,4.5-2.48.25-4.44-1.4-4.49-3.89Z"/>
  <path class="cls-2" d="M341.5,25.7c.17,1.65.2,3.05.12,4.08-.21,2.63-1.43,3.67-3.3,3.74-2.09.06-3.17-1.51-3.36-3.91-.1-1.19-.08-2.86-.05-3.96h2.04s-.26,2.62-.18,4.11c.09,1.6.79,2.21,1.65,2.12.84-.08,1.19-1.06,1.19-2.64,0-1.04-.14-2.32-.32-3.45l2.22-.09Z"/>
  <path class="cls-2" d="M350.1,33.28l-1.56,1.31s-1.6-2.12-1.84-2.56l-1.13.13.05,2.23h-1.74s-.03-6.93,0-7.85c2.67-.7,4.73-.21,5.23,1.76.21,1.1-.16,2.23-1.34,2.69,0,0,1.67,1.88,2.32,2.28ZM347.41,28.81c-.07-.65-.6-1-1.87-.88l.03,2.32c1-.03,1.95-.42,1.84-1.44Z"/>
  <path class="cls-2" d="M355.12,27.48l.16,5.98s-1.08.12-2.01.12c0,0,.18-5.49.16-6.1,0,0-1.8-.16-2.4-.18v-1.65s4.89,0,6.52.05l-.16,1.75s-1.83.05-2.26.03Z"/>
  <path class="cls-2" d="M360.31,34.33l.12-1.49,1.44.05.14,1.34c-.6.13-.95.16-1.7.1ZM360.57,31.92s-.16-2.96-.19-5.62l1.75.1s-.29,3.84-.34,5.43c-.3.05-.7.06-1.22.09Z"/>
  <g>
    <path class="cls-1" d="M150.91,21.46l.03-1.24-3.3-.08-1.46-1.54,1.91.05.04-1.55-3.46-.09-2.05-2.15.22-.75,2.92-.7,2.92,1.79.81-1.32-1.6-.98,2.07-.5,2.79,1.71.65-1.06-1.73-1.06,3.32-.8-.29-1.21-3.34.8,1.08-1.76-1.06-.65-1.72,2.82-2.07.5,1-1.63-1.32-.81-1.8,2.95-2.88.69-.54-.6.84-2.84,3.01-1.63-.74-1.36-1.64.89.6-2.04,2.87-1.56-.59-1.09-1.78.97.97-3.27-1.19-.35-.98,3.3-.99-1.81-1.09.59,1.58,2.9-.6,2.04-.91-1.68-1.36.74,1.65,3.04-.85,2.88-.75.16-2.07-2.18.09-3.42-1.55-.04-.05,1.87-1.46-1.54.08-3.26-1.24-.03-.05,2.03-2.35-2.47-.9.85,2.37,2.49-2.06-.05-.03,1.24,3.3.08,1.46,1.54-1.91-.05-.04,1.55,3.46.09,2.05,2.15-.22.75-2.92.7-2.92-1.79-.81,1.32,1.6.98-2.07.5-2.79-1.71-.65,1.06,1.73,1.06-3.32.8.29,1.21,3.34-.8-1.08,1.76,1.06.65,1.72-2.82,2.07-.5-1,1.63,1.32.81,1.81-2.95,2.89-.7.54.57-.85,2.88-3.01,1.63.74,1.36,1.64-.89-.6,2.04-2.87,1.56.59,1.09,1.78-.97-.97,3.27,1.19.35.98-3.3.99,1.81,1.09-.59-1.58-2.9.6-2.04.91,1.68,1.36-.74-1.65-3.04.84-2.85.76-.18,2.07,2.17-.09,3.42,1.55.04.05-1.87,1.46,1.54-.08,3.26,1.24.03.05-2.02,2.35,2.47.9-.85-2.37-2.49,2.06.05ZM141.43,14.5l-.76.18-.54-.57.22-.74.82-.18.48.54-.23.76Z"/>
    <polygon class="cls-1" points="155.56 31.52 155.12 30.48 153.75 31.04 153.94 29.57 152.82 29.42 152.62 30.9 151.44 29.99 150.75 30.89 151.93 31.8 150.56 32.37 150.99 33.41 152.36 32.85 152.17 34.32 153.3 34.47 153.49 32.99 154.67 33.9 155.36 33 154.18 32.09 155.56 31.52"/>
    <polygon class="cls-1" points="161 23.1 159.88 21.94 158.37 23.41 157.85 21.37 156.29 21.76 156.8 23.8 154.78 23.22 154.34 24.77 156.36 25.35 154.85 26.81 155.97 27.97 157.48 26.5 158 28.55 159.56 28.15 159.05 26.11 161.07 26.69 161.51 25.14 159.49 24.56 161 23.1"/>
  </g>
  <path class="cls-1" d="M93.23,41.33l-1.77.22.7-1.65c-1.11-.5-2.85-.15-4.35.99-.17.13-.33.28-.47.44-.03-.21-.07-.42-.14-.63-.62-1.78-1.87-3.04-3.07-3.24l-.34,1.75-1.35-1.17c-.82.9-1.02,2.66-.41,4.44.07.21.17.4.28.58-.21-.04-.42-.06-.64-.06-1.88.04-3.46.84-4.03,1.92l1.56.86-1.53.92c.6,1.06,2.22,1.8,4.1,1.76.22,0,.43-.04.64-.08-.1.19-.19.38-.26.59-.55,1.8-.28,3.55.58,4.42l1.3-1.22.41,1.74c1.19-.25,2.39-1.55,2.94-3.35.06-.21.1-.42.12-.64.15.15.31.3.49.43,1.54,1.08,3.29,1.36,4.38.82l-.76-1.62,1.78.15c.13-1.21-.74-2.76-2.28-3.83-.18-.13-.37-.22-.57-.31.19-.09.38-.2.56-.33,1.5-1.14,2.31-2.71,2.13-3.92Z"/>
  <path class="cls-1" d="M380.64,64.8c-.58,4.18,2.14,10.59,9.52,10.39,3.79-.1,7.28-2.53,7.09-6.8-.29-6.02-5.63-8.55-11.95-7.19l-.49-11.75c8.55.1,11.56-2.82,11.75-6.31.29-5.54-3.98-7.19-7.09-6.99-2.91.19-5.92,2.23-6.41,6.41h-11.75c-.97-9.32,6.51-16.03,15.73-16.9,12.82-1.17,20.98,4.56,21.95,14.18.68,7.09-3.11,12.72-9.03,14.08,6.31,1.65,11.36,8.55,10.2,17-1.26,9.32-7.67,16.41-20.49,15.93-14.67-.49-19.33-10.39-20.88-18.07l11.85-3.98Z"/>
</svg>